<svg xmlns="http://www.w3.org/2000/svg" viewBox="0 0 24 24" width="24" height="24" fill="none">
  <!-- Background circle for better visibility -->
  <circle cx="12" cy="12" r="11" fill="#000000" stroke="none"/>
  
  <!-- Wave patterns in white -->
  <!-- Large wave -->
  <path d="M3 12c2-3 4-3 6 0s4 3 6 0s4-3 6 0" 
        stroke="white" 
        stroke-width="1.8" 
        stroke-linecap="round" 
        stroke-linejoin="round" 
        fill="none" 
        opacity="0.9"/>
  
  <!-- Medium wave -->
  <path d="M3 15c2-2 4-2 6 0s4 2 6 0s4-2 6 0" 
        stroke="white" 
        stroke-width="1.5" 
        stroke-linecap="round" 
        stroke-linejoin="round" 
        fill="none" 
        opacity="0.7"/>
  
  <!-- Small wave -->
  <path d="M3 9c2-2 4-2 6 0s4 2 6 0s4-2 6 0" 
        stroke="white" 
        stroke-width="1.2" 
        stroke-linecap="round" 
        stroke-linejoin="round" 
        fill="none" 
        opacity="0.6"/>
  
  <!-- Accent dots representing pattern points -->
  <circle cx="6" cy="12" r="1" fill="white" opacity="0.8"/>
  <circle cx="12" cy="9" r="0.8" fill="white" opacity="0.7"/>
  <circle cx="18" cy="15" r="0.8" fill="white" opacity="0.7"/>
  <circle cx="15" cy="12" r="0.6" fill="white" opacity="0.6"/>
</svg>